<?xml version="1.0" encoding="utf-8"?>
<!-- Generator: Adobe Illustrator 21.1.0, SVG Export Plug-In . SVG Version: 6.00 Build 0)  -->
<svg version="1.1" id="Layer_1" xmlns="http://www.w3.org/2000/svg" xmlns:xlink="http://www.w3.org/1999/xlink" x="0px" y="0px"
	 viewBox="0 0 841.9 595.3" style="enable-background:new 0 0 841.9 595.3;" xml:space="preserve">
<style type="text/css">
	.st0{fill:#F6B8A0;}
	.st1{fill:#ED7B5C;}
	.st2{fill:#F1987B;}
	.st3{fill:#89BBE5;}
	.st4{fill:#EA593D;}
</style>
<g>
	<path class="st0" d="M424.2,564.3c-23.5,1.3-47.5-1.4-71.2-8.6c-0.8-0.2-1.6-0.5-2.4-0.8c-0.8-0.2-1.6-0.5-2.5-0.7
		c-48.8-14.9-89.4-44.3-119-82.5c-50.2-64.9-68.9-155.1-42.1-243c1.8-5.9,3.8-11.6,5.9-17.3c-6.6,13.4-12.2,27.5-16.7,42.3
		c-13,42.7-15.3,86-8.5,126.6c15.5,92.3,78.2,171.1,169.5,199c126,38.4,260.8-34.2,309.3-163.2C602.9,504.9,516.3,561.5,424.2,564.3
		z"/>
	<path class="st1" d="M506.9,15.6c-55.1-16.8-111.6-14.5-163.3,3c-79.9,22.2-148.8,84.9-178.9,172c-3.4,8.5-6.5,17.2-9.2,26.1
		C108,372.5,188.4,535,335,579.7c146.6,44.7,303.9-45.4,351.4-201.2C733.9,222.8,653.5,60.3,506.9,15.6z M337.3,579.2
		c-91.3-27.8-154-106.6-169.5-199c-6.8-40.6-4.6-83.9,8.5-126.6c4.5-14.8,10.1-28.9,16.7-42.3C248.6,98.2,373.9,37.4,491.4,73.2
		c73.2,22.3,127.9,77.3,154.8,145.7c21.4,54.6,25.2,117.8,6.3,179.8c-1.8,5.9-3.8,11.6-5.9,17.3
		C598.1,545.1,463.3,617.6,337.3,579.2z"/>
	<path class="st2" d="M646.3,219c-26.9-68.5-81.6-123.5-154.8-145.7C373.9,37.4,248.6,98.2,193,211.4c-2.1,5.7-4.1,11.4-5.9,17.3
		c-26.8,87.9-8.2,178.2,42.1,243c9.4,8.8,19.5,17,30.2,24.2c-51.5-57.1-72.1-142-47-224.4c22.3-73.1,75.5-127.7,139.2-152.2
		c40.4-20.8,88.8-26.5,135.9-12.1c39.5,12,71.9,36.2,94.2,67.2c39.9,44.6,61,105.9,56.5,169.8c-1.3,17.9-4.6,36.1-10.1,54.1
		c-29.5,96.9-113.3,161.3-204,166.2c92.1-2.8,178.8-59.4,222.5-148.3c2.1-5.7,4.1-11.4,5.9-17.3C671.4,336.8,667.7,273.6,646.3,219z
		"/>
	<path class="st3" d="M353,555.7c23.6,7.2,47.6,9.9,71.2,8.6c-24.4,0.8-49.1-2.3-73.6-9.4C351.4,555.2,352.2,555.5,353,555.7z"/>
	<path class="st1" d="M637.8,345.6C595.2,485.3,454.1,566.1,322.6,526c-23-7-44.1-17.2-63.2-30.1c-10.8-7.3-20.9-15.4-30.2-24.2
		c29.6,38.2,70.2,67.6,119,82.5c0.8,0.2,1.6,0.5,2.5,0.7c24.5,7.2,49.2,10.2,73.6,9.4c90.7-4.9,174.5-69.3,204-166.2
		c5.5-18,8.8-36.1,10.1-54.1C638.1,344.6,638,345.1,637.8,345.6z"/>
	<path class="st4" d="M581.7,174.3c31.7,43.8,43.3,101.2,26.4,156.5c-28.8,94.5-129.5,147.5-224.9,118.5
		c-95.4-29.1-149.4-129.2-120.6-223.7c14.6-47.8,47.6-85,89-106.3c-63.8,24.5-117,79.1-139.2,152.2c-25.1,82.4-4.5,167.3,47,224.4
		c19.1,12.9,40.2,23.1,63.2,30.1c131.5,40.1,272.7-40.7,315.2-180.5c0.1-0.5,0.3-1,0.4-1.5C642.8,280.3,621.6,218.9,581.7,174.3z"/>
</g>
</svg>
